{"title":"Ariana Grande - Focus (2015.Pop)","uid":13449370,"size":74976208,"categoryP":"video","categoryS":"music_videos","magnet":"?xt=urn:btih:adc51b2ed939d0d1a67a12f34b9b7b97d26f669f&amp;dn=Ariana+Grande+-+Focus+%282015.Pop%29&amp;tr=udp%3A%2F%2Ftracker.leechers-paradise.org%3A6969&amp;tr=udp%3A%2F%2Fzer0day.ch%3A1337&amp;tr=udp%3A%2F%2Fopen.demonii.com%3A1337&amp;tr=udp%3A%2F%2Ftracker.coppersurfer.tk%3A6969&amp;tr=udp%3A%2F%2Fexodus.desync.com%3A6969","seeders":1,"leechers":0,"uploader":"MeRaDil","files":1,"time":1454782609,"description":"ARIANA GRANDE - FOCUS\r\n\r\n \nhttp://gifyu.com/images/focus.png\r\n \nhttp://gifyu.com/images/Focus-AG.png\r\n\r\nGeneral\r\nAriana Grande - Focus\r\nFormat                                   : MPEG-4\r\nFormat profile                           : Base Media\r\nCodec ID                                 : isom\r\nFile size                                : 71.5 MiB\r\nDuration                                 : 3mn 45s\r\nOverall bit rate                         : 2 665 Kbps\r\nMusicVid name                            : Focus\r\nPerformer                                : Ariana Grande\r\nGenre                                    : Pop\r\nContentType                              : Music Video\r\nRecorded date                            : 2015\r\nWriting application                      : Lavf56.32.100 / MeRaDil\r\nCover                                    : Yes\r\naurl                                     : http://www.arianagrande.com/\r\nrelt                                     : USA . october 29 . 2015\r\n\r\nVideo\r\nID                                       : 1\r\nFormat                                   : AVC\r\nFormat/Info                              : Advanced Video Codec\r\nFormat profile                           :   \r\nFormat settings, CABAC                   : Yes\r\nFormat settings, ReFrames                : 3 frames\r\nCodec ID                                 : avc1\r\nCodec ID/Info                            : Advanced Video Coding\r\nDuration                                 : 3mn 44s\r\nBit rate                                 : 2 388 Kbps\r\nWidth                                    : 1 920 pixels\r\nHeight                                   : 1 080 pixels\r\nDisplay aspect ratio                     : 16:9\r\nFrame rate mode                          : Variable\r\nFrame rate                               : 23.976 fps\r\nMinimum frame rate                       : 23.974 fps\r\nMaximum frame rate                       : 23.981 fps\r\nColor space                              : YUV\r\nChroma subsampling                       : 4:2:0\r\nBit depth                                : 8 bits\r\nScan type                                : Progressive\r\nBits/(Pixel*Frame)                       : 0.048\r\nStream size                              : 64.0 MiB (90%)\r\n\r\nAudio\r\nID                                       : 2\r\nFormat                                   : AAC\r\nFormat/Info                              : Advanced Audio Codec\r\nFormat profile                           : LC\r\nCodec ID                                 : 40\r\nDuration                                 : 3mn 45s\r\nBit rate mode                            : Constant\r\nBit rate                                 : 256 Kbps\r\nChannel(s)                               : 2 channels\r\nChannel positions                        : Front: L R\r\nSampling rate                            : 44.1 KHz\r\nCompression mode                         : Lossy\r\nStream size                              : 6.87 MiB (10%)","torrent":{"xt":"urn:btih:adc51b2ed939d0d1a67a12f34b9b7b97d26f669f","amp;dn":"Ariana+Grande+-+Focus+%282015.Pop%29","amp;tr":["udp%3A%2F%2Ftracker.leechers-paradise.org%3A6969","udp%3A%2F%2Fzer0day.ch%3A1337","udp%3A%2F%2Fopen.demonii.com%3A1337","udp%3A%2F%2Ftracker.coppersurfer.tk%3A6969","udp%3A%2F%2Fexodus.desync.com%3A6969"],"infoHash":"adc51b2ed939d0d1a67a12f34b9b7b97d26f669f","infoHashBuffer":{"type":"Buffer","data":[173,197,27,46,217,57,208,209,166,122,18,243,75,155,123,151,210,111,102,159]},"announce":[],"urlList":[]}}